{
    "accessors" : [
        {
            "bufferView" : 0,
            "componentType" : 5123,
            "count" : 396,
            "max" : [
                267
            ],
            "min" : [
                0
            ],
            "type" : "SCALAR"
        },
        {
            "bufferView" : 1,
            "componentType" : 5126,
            "count" : 268,
            "max" : [
                0.6361628770828247,
                0.8342811465263367,
                0.41563576459884644
            ],
            "min" : [
                -0.6361628770828247,
                -0.8365916609764099,
                -0.41563576459884644
            ],
            "type" : "VEC3"
        },
        {
            "bufferView" : 2,
            "componentType" : 5126,
            "count" : 268,
            "max" : [
                0.8008073568344116,
                0.8217629194259644,
                0.9654983878135681
            ],
            "min" : [
                -0.8008073568344116,
                -0.9799529910087585,
                -0.9654983878135681
            ],
            "type" : "VEC3"
        },
        {
            "bufferView" : 3,
            "componentType" : 5126,
            "count" : 268,
            "max" : [
                1.0,
                0.9673816561698914,
                0.4604341983795166,
                1.0
            ],
            "min" : [
                -0.908305823802948,
                -0.9673816561698914,
                -0.4604341685771942,
                -1.0
            ],
            "type" : "VEC4"
        },
        {
            "bufferView" : 4,
            "componentType" : 5126,
            "count" : 268,
            "max" : [
                0.5037449598312378,
                0.9862629249691963
            ],
            "min" : [
                0.23442769050598145,
                0.003610849380493164
            ],
            "type" : "VEC2"
        }
    ],
    "asset" : {
        "generator" : "Khronos Blender glTF 2.0 exporter",
        "version" : "2.0"
    },
    "bufferViews" : [
        {
            "buffer" : 0,
            "byteLength" : 792,
            "byteOffset" : 0,
            "target" : 34963
        },
        {
            "buffer" : 0,
            "byteLength" : 3216,
            "byteOffset" : 792,
            "target" : 34962
        },
        {
            "buffer" : 0,
            "byteLength" : 3216,
            "byteOffset" : 4008,
            "target" : 34962
        },
        {
            "buffer" : 0,
            "byteLength" : 4288,
            "byteOffset" : 7224,
            "target" : 34962
        },
        {
            "buffer" : 0,
            "byteLength" : 2144,
            "byteOffset" : 11512,
            "target" : 34962
        }
    ],
    "buffers" : [
        {
            "byteLength" : 13656,
            "uri" : "data:application/octet-stream;base64,"
        }
    ],
    "images" : [
        {
            "name" : "T_Gems",
            "uri" : "T_Gems.png"
        }
    ],
    "materials" : [
        {
            "name" : "Material.006",
            "pbrMetallicRoughness" : {
                "baseColorFactor" : [
                    0.6400000190734865,
                    0.6400000190734865,
                    0.6400000190734865,
                    1.0
                ],
                "baseColorTexture" : {
                    "index" : 0
                },
                "metallicFactor" : 0.0
            }
        }
    ],
    "meshes" : [
        {
            "name" : "Sphere.003",
            "primitives" : [
                {
                    "attributes" : {
                        "NORMAL" : 2,
                        "POSITION" : 1,
                        "TANGENT" : 3,
                        "TEXCOORD_0" : 4
                    },
                    "indices" : 0,
                    "material" : 0
                }
            ]
        }
    ],
    "nodes" : [
        {
            "mesh" : 0,
            "name" : "Sphere.003",
            "rotation" : [
                0.0,
                0.0,
                -1.0,
                -1.6292068494294654e-07
            ],
            "scale" : [
                0.5685290098190308,
                0.7795135974884033,
                0.5685290098190308
            ]
        }
    ],
    "samplers" : [
        {}
    ],
    "scene" : 0,
    "scenes" : [
        {
            "name" : "Scene",
            "nodes" : [
                0
            ]
        }
    ],
    "textures" : [
        {
            "sampler" : 0,
            "source" : 0
        }
    ]
}
