{
    "accessors" : [
        {
            "bufferView" : 0,
            "componentType" : 5123,
            "count" : 1140,
            "max" : [
                611
            ],
            "min" : [
                0
            ],
            "type" : "SCALAR"
        },
        {
            "bufferView" : 1,
            "componentType" : 5126,
            "count" : 612,
            "max" : [
                0.8944249749183655,
                1.0,
                0.8506399989128113
            ],
            "min" : [
                -0.8944249749183655,
                -1.0,
                -0.8506399989128113
            ],
            "type" : "VEC3"
        },
        {
            "bufferView" : 2,
            "componentType" : 5126,
            "count" : 612,
            "max" : [
                0.9822462201118469,
                0.9977455139160156,
                0.9341716170310974
            ],
            "min" : [
                -0.9822462201118469,
                -0.9977455139160156,
                -0.9341716170310974
            ],
            "type" : "VEC3"
        },
        {
            "bufferView" : 3,
            "componentType" : 5126,
            "count" : 612,
            "max" : [
                1.0,
                0.8621177673339844,
                1.0,
                1.0
            ],
            "min" : [
                -0.9512813687324524,
                -0.9186554551124573,
                -1.0,
                1.0
            ],
            "type" : "VEC4"
        },
        {
            "bufferView" : 4,
            "componentType" : 5126,
            "count" : 612,
            "max" : [
                0.5098510384559631,
                1.0
            ],
            "min" : [
                0.0,
                0.0042784810066223145
            ],
            "type" : "VEC2"
        }
    ],
    "asset" : {
        "generator" : "Khronos Blender glTF 2.0 exporter",
        "version" : "2.0"
    },
    "bufferViews" : [
        {
            "buffer" : 0,
            "byteLength" : 2280,
            "byteOffset" : 0,
            "target" : 34963
        },
        {
            "buffer" : 0,
            "byteLength" : 7344,
            "byteOffset" : 2280,
            "target" : 34962
        },
        {
            "buffer" : 0,
            "byteLength" : 7344,
            "byteOffset" : 9624,
            "target" : 34962
        },
        {
            "buffer" : 0,
            "byteLength" : 9792,
            "byteOffset" : 16968,
            "target" : 34962
        },
        {
            "buffer" : 0,
            "byteLength" : 4896,
            "byteOffset" : 26760,
            "target" : 34962
        }
    ],
    "buffers" : [
        {
            "byteLength" : 31656,
            "uri" : "data:application/octet-stream;base64,"
        }
    ],
    "images" : [
        {
            "name" : "T_Gems",
            "uri" : "T_Gems.png"
        }
    ],
    "materials" : [
        {
            "name" : "Material.005",
            "pbrMetallicRoughness" : {
                "baseColorFactor" : [
                    0.6400000190734865,
                    0.6400000190734865,
                    0.6400000190734865,
                    1.0
                ],
                "baseColorTexture" : {
                    "index" : 0
                },
                "metallicFactor" : 0.0
            }
        }
    ],
    "meshes" : [
        {
            "name" : "Icosphere.001",
            "primitives" : [
                {
                    "attributes" : {
                        "NORMAL" : 2,
                        "POSITION" : 1,
                        "TANGENT" : 3,
                        "TEXCOORD_0" : 4
                    },
                    "indices" : 0,
                    "material" : 0
                }
            ]
        }
    ],
    "nodes" : [
        {
            "mesh" : 0,
            "name" : "Icosphere.001",
            "scale" : [
                0.6189269423484802,
                0.6189269423484802,
                0.6189269423484802
            ]
        }
    ],
    "samplers" : [
        {}
    ],
    "scene" : 0,
    "scenes" : [
        {
            "name" : "Scene",
            "nodes" : [
                0
            ]
        }
    ],
    "textures" : [
        {
            "sampler" : 0,
            "source" : 0
        }
    ]
}
