{
    "accessors" : [
        {
            "bufferView" : 0,
            "componentType" : 5121,
            "count" : 228,
            "max" : [
                143
            ],
            "min" : [
                0
            ],
            "type" : "SCALAR"
        },
        {
            "bufferView" : 1,
            "componentType" : 5126,
            "count" : 144,
            "max" : [
                1.263502597808838,
                1.0,
                1.263502597808838
            ],
            "min" : [
                -1.263502597808838,
                -1.0,
                -1.263502597808838
            ],
            "type" : "VEC3"
        },
        {
            "bufferView" : 2,
            "componentType" : 5126,
            "count" : 144,
            "max" : [
                0.9669923782348633,
                1.0,
                0.9669923782348633
            ],
            "min" : [
                -0.9669923782348633,
                -1.0,
                -0.9669923782348633
            ],
            "type" : "VEC3"
        },
        {
            "bufferView" : 3,
            "componentType" : 5126,
            "count" : 144,
            "max" : [
                0.9048645496368408,
                0.4827308654785156
            ],
            "min" : [
                0.4275989532470703,
                0.0056716203689575195
            ],
            "type" : "VEC2"
        }
    ],
    "asset" : {
        "generator" : "Khronos Blender glTF 2.0 exporter",
        "version" : "2.0"
    },
    "bufferViews" : [
        {
            "buffer" : 0,
            "byteLength" : 228,
            "byteOffset" : 0,
            "target" : 34963
        },
        {
            "buffer" : 0,
            "byteLength" : 1728,
            "byteOffset" : 228,
            "target" : 34962
        },
        {
            "buffer" : 0,
            "byteLength" : 1728,
            "byteOffset" : 1956,
            "target" : 34962
        },
        {
            "buffer" : 0,
            "byteLength" : 1152,
            "byteOffset" : 3684,
            "target" : 34962
        }
    ],
    "buffers" : [
        {
            "byteLength" : 4836,
            "uri" : "data:application/octet-stream;base64,"
        }
    ],
    "images" : [
        {
            "name" : "T_Gems",
            "uri" : "T_Gems.png"
        }
    ],
    "materials" : [
        {
            "name" : "Material.010",
            "pbrMetallicRoughness" : {
                "baseColorFactor" : [
                    0.6400000190734865,
                    0.6400000190734865,
                    0.6400000190734865,
                    1.0
                ],
                "baseColorTexture" : {
                    "index" : 0
                },
                "metallicFactor" : 0.0
            }
        }
    ],
    "meshes" : [
        {
            "name" : "Cube.005",
            "primitives" : [
                {
                    "attributes" : {
                        "NORMAL" : 2,
                        "POSITION" : 1,
                        "TEXCOORD_0" : 3
                    },
                    "indices" : 0,
                    "material" : 0
                }
            ]
        }
    ],
    "nodes" : [
        {
            "mesh" : 0,
            "name" : "Cube.005",
            "rotation" : [
                0.7071068286895752,
                0.0,
                -0.0,
                0.7071068286895752
            ],
            "scale" : [
                0.4427988529205322,
                0.101111501455307,
                0.4427988529205322
            ]
        }
    ],
    "samplers" : [
        {}
    ],
    "scene" : 0,
    "scenes" : [
        {
            "name" : "Scene",
            "nodes" : [
                0
            ]
        }
    ],
    "textures" : [
        {
            "sampler" : 0,
            "source" : 0
        }
    ]
}
